<?xml version="1.0" encoding="UTF-8"?><svg width="24px" height="24px" viewBox="0 0 24 24" version="1.1" xmlns="http://www.w3.org/2000/svg" xmlns:xlink="http://www.w3.org/1999/xlink">        <title>plus-icon-default</title>    <desc>Created with Sketch.</desc>    <g id="Mobile-Web---EN" stroke="none" stroke-width="1" fill="none" fill-rule="evenodd">        <g id="Mobile" transform="translate(-148.000000, -288.000000)" fill="#E00000">            <g id="Plus-Icon" transform="translate(148.000000, 288.000000)">                <path d="M12,0 C18.627417,-1.21743675e-15 24,5.372583 24,12 C24,18.627417 18.627417,24 12,24 C5.372583,24 8.11624501e-16,18.627417 0,12 C-8.11624501e-16,5.372583 5.372583,1.21743675e-15 12,0 Z M16,11 L13,11 L13,8 C13,7.4 12.6,7 12,7 C11.4,7 11,7.4 11,8 L11,11 L8,11 C7.4,11 7,11.4 7,12 C7,12.6 7.4,13 8,13 L11,13 L11,16 C11,16.6 11.4,17 12,17 C12.6,17 13,16.6 13,16 L13,13 L16,13 C16.6,13 17,12.6 17,12 C17,11.4 16.6,11 16,11 Z" id="plus-icon-default"></path>            </g>        </g>    </g></svg>