<svg width="33" height="34" fill="none" xmlns="http://www.w3.org/2000/svg"><g clip-path="url(#clip0_709_22432)"><path d="M16.5 33.5C25.613 33.5 33 26.113 33 17S25.613.5 16.5.5 0 7.887 0 17s7.387 16.5 16.5 16.5z" fill="url(#paint0_linear_709_22432)"/><path d="M11.61 9.5h9.617a.729.729 0 01.593.3l4.744 5.31a.745.745 0 01.08 1.01l-9.48 11.037a.585.585 0 01-.176.24.737.737 0 01-1.154-.144L6.216 16.088A.737.737 0 016 15.615a.72.72 0 01.24-.545l4.737-5.241a.394.394 0 01.1-.1.73.73 0 01.533-.229zm1.6 4.3l1.835-2.821h-2.53l.695 2.821zm4.536-2.821l1.875 2.8.689-2.8h-2.564zm.8 3.895l-2.128-3.25-2.118 3.253 4.246-.003zm-4.66 1.486l2.6 7.431 2.489-7.431h-5.089zm7.742-4.584l-.761 3.1h3.566l-2.805-3.1zM20.5 16.36l-2.308 6.694 6.465-6.694H20.5zm-5.682 6.8l-2.4-6.8h-4.23l6.63 6.8zm-2.839-8.283l-.802-3.077L8.4 14.877h3.579z" fill="#666B72"/></g><defs><linearGradient id="paint0_linear_709_22432" x1="16.5" y1=".5" x2="16.5" y2="33.5" gradientUnits="userSpaceOnUse"><stop stop-color="#fff"/><stop offset="1" stop-color="#fff"/></linearGradient><clipPath id="clip0_709_22432"><path fill="#fff" transform="translate(0 .5)" d="M0 0h33v33H0z"/></clipPath></defs></svg>