<?xml version="1.0" encoding="UTF-8"?><svg width="24px" height="24px" viewBox="0 0 24 24" version="1.1" xmlns="http://www.w3.org/2000/svg" xmlns:xlink="http://www.w3.org/1999/xlink">        <title>Home</title>    <desc>Created with Sketch.</desc>    <defs></defs>    <g id="Icons" stroke="none" stroke-width="1" fill="none" fill-rule="evenodd">        <g transform="translate(-735.000000, -255.000000)" fill="#b6b8b9" fill-rule="nonzero" id="Line/24px/Home">            <g transform="translate(735.000000, 255.000000)">                <path d="M13,20.5 C13,21.0522847 12.5522847,21.5 12,21.5 C11.4477153,21.5 11,21.0522847 11,20.5 L11,15.5 C11,14.9477153 11.4477153,14.5 12,14.5 C12.5522847,14.5 13,14.9477153 13,15.5 L13,20.5 Z M11.3492086,2.2407434 C11.7236984,1.9197522 12.2763016,1.9197522 12.6507914,2.2407434 L20.6507914,9.09788625 C20.8724373,9.28786845 21,9.56521797 21,9.85714286 L21,21 C21,21.5522847 20.5522847,22 20,22 L4,22 C3.44771525,22 3,21.5522847 3,21 L3,9.85714286 C3,9.56521797 3.12756273,9.28786845 3.34920863,9.09788625 L11.3492086,2.2407434 Z M12,4.31707778 L5,10.3170778 L5,20 L19,20 L19,10.3170778 L12,4.31707778 Z" id="Shape"></path>            </g>        </g>    </g></svg>