<?xml version="1.0" encoding="UTF-8"?><svg width="24px" height="24px" viewBox="0 0 24 24" version="1.1" xmlns="http://www.w3.org/2000/svg" xmlns:xlink="http://www.w3.org/1999/xlink">        <title>Account</title>    <desc>Created with Sketch.</desc>    <defs></defs>    <g id="Icons" stroke="none" stroke-width="1" fill="none" fill-rule="evenodd">        <g transform="translate(-689.000000, -253.000000)" fill="#b6b8b9" fill-rule="nonzero" id="Line/24px/Account">            <g transform="translate(689.000000, 253.000000)">                <path d="M18,19.1618 C18,17.7920801 17.4337135,16.6002573 16.651655,16.1470673 C15.4144151,15.428269 13.8763417,15 12,15 C10.1242671,15 8.58648672,15.4278728 7.34819135,16.1457565 C6.5663407,16.5998018 6,17.792047 6,19.1618 L6,20 L18,20 L18,19.1618 Z M19,22 L5,22 C4.44771525,22 4,21.5522847 4,21 L4,19.1618 C4,17.1298035 4.88716847,15.2621603 6.34445303,14.4158696 C7.88315573,13.5238287 9.76580277,13 12,13 C14.2352336,13 16.1188112,13.524473 17.6553831,14.4171746 C19.1125201,15.2615602 20,17.1293756 20,19.1618 L20,21 C20,21.5522847 19.5522847,22 19,22 Z M12.0634921,12 C9.27049699,12 7,9.76497952 7,7 C7,4.23502048 9.27049699,2 12.0634921,2 C14.8564871,2 17.1269841,4.23502048 17.1269841,7 C17.1269841,9.76497952 14.8564871,12 12.0634921,12 Z M12.0634921,10 C13.7589064,10 15.1269841,8.65329848 15.1269841,7 C15.1269841,5.34670152 13.7589064,4 12.0634921,4 C10.3680777,4 9,5.34670152 9,7 C9,8.65329848 10.3680777,10 12.0634921,10 Z" id="Shape"></path>            </g>        </g>    </g></svg>